<?xml version="1.0" standalone="no"?>
<!DOCTYPE svg PUBLIC "-//W3C//DTD SVG 20010904//EN"
 "http://www.w3.org/TR/2001/REC-SVG-20010904/DTD/svg10.dtd">
<svg version="1.0" xmlns="http://www.w3.org/2000/svg"
 width="240.000000pt" height="233.000000pt" viewBox="0 0 240.000000 233.000000"
 preserveAspectRatio="xMidYMid meet">

<g transform="translate(0.000000,233.000000) scale(0.100000,-0.100000)"
fill="#000000" stroke="none">
  <defs>
    <linearGradient id="headphone" x1="50%" y1="0%" x2="50%" y2="100%">
      <stop offset="0%" style="stop-color:#762d4a;stop-opacity:1" /> <!-- Đỏ -->
      <stop offset="35%" style="stop-color:#c64174;stop-opacity:1" />
      <stop offset="90%" style="stop-color:#eb2272;stop-opacity:1" /> <!-- Xanh dương -->
    </linearGradient>
     <linearGradient id="note" x1="0%" y1="0%" x2="70%" y2="100%">
        <stop offset="0%" style="stop-color:#2e2b2b;stop-opacity:1" />
        <stop offset="65%" style="stop-color:#eb2272;stop-opacity:1" />
        <stop offset="100%" style="stop-color:#eb2272;stop-opacity:1" />
     </linearGradient>
  </defs>

<path fill="url(#headphone)" d="M991 2210 c-503 -104 -871 -546 -871 -1044 0 -106 -2 -118 -32 -182
-28 -62 -31 -79 -31 -160 0 -103 23 -170 83 -238 65 -74 172 -126 257 -126 29
0 33 -3 33 -25 0 -24 3 -25 60 -25 l60 0 0 415 0 415 -54 0 c-46 0 -56 -3 -61
-20 -4 -13 -18 -21 -43 -25 -20 -3 -58 -12 -84 -19 -26 -8 -49 -11 -52 -8 -18
17 6 169 45 292 42 130 141 284 241 375 166 150 333 226 561 256 170 22 357
-14 527 -102 287 -149 483 -436 507 -746 3 -46 4 -83 2 -83 -2 0 -26 7 -53 15
-27 8 -64 15 -83 15 -27 0 -35 5 -43 25 -8 22 -15 25 -58 25 l-49 0 -6 -247
c-4 -137 -7 -323 -7 -415 l0 -168 53 0 c47 0 55 3 64 24 9 18 22 24 62 29 215
26 366 248 307 451 -10 32 -26 75 -37 95 -15 28 -19 56 -19 128 0 299 -108
561 -318 772 -133 135 -263 213 -448 273 -95 30 -107 32 -284 34 -102 2 -205
-1 -229 -6z"/>
<path fill="url(#note)" d="M1309 1731 c-26 -21 -23 13 -27 -383 l-2 -168 -78 0 c-247 0 -466
-158 -533 -384 -28 -94 -23 -271 9 -356 46 -117 153 -238 256 -289 223 -110
468 -72 636 98 123 124 160 228 160 448 l0 143 -55 0 -55 0 0 -128 c0 -191
-28 -279 -121 -377 -152 -160 -409 -176 -586 -36 -96 75 -153 202 -153 337 0
251 194 434 461 434 68 0 66 5 61 -137 l-3 -93 -67 0 c-107 -1 -173 -40 -213
-125 -36 -78 -16 -168 52 -232 43 -40 77 -53 140 -53 77 0 133 35 185 115 18
28 19 54 22 437 3 455 -2 426 76 408 57 -13 103 -63 126 -138 15 -49 21 -97
22 -203 1 -77 4 -139 6 -139 12 0 63 137 73 196 25 152 -16 255 -160 407 -53
56 -112 128 -130 160 -28 48 -55 77 -74 77 -3 0 -15 -8 -28 -19z"/>
</g>
</svg>
