<svg width="27" height="27" viewBox="0 0 27 27" fill="none" xmlns="http://www.w3.org/2000/svg">
<path d="M7.81818 6.76923C11.5838 6.76923 14.6364 5.47774 14.6364 3.88462C14.6364 2.29149 11.5838 1 7.81818 1C4.0526 1 1 2.29149 1 3.88462C1 5.47774 4.0526 6.76923 7.81818 6.76923Z" stroke="white" stroke-width="2" stroke-miterlimit="10" stroke-linecap="round" stroke-linejoin="round"/>
<path d="M1 3.88477V7.73092C1 9.36553 4.06818 10.6155 7.81818 10.6155C11.5682 10.6155 14.6364 9.36553 14.6364 7.73092V3.88477" stroke="white" stroke-width="2" stroke-miterlimit="10" stroke-linecap="round" stroke-linejoin="round"/>
<path d="M1 7.73096V11.5771C1 13.2117 4.06818 14.4617 7.81818 14.4617C11.5682 14.4617 14.6364 13.2117 14.6364 11.5771V7.73096" stroke="white" stroke-width="2" stroke-miterlimit="10" stroke-linecap="round" stroke-linejoin="round"/>
<path d="M1 11.5771V15.4233C1 17.0579 4.06818 18.3079 7.81818 18.3079C11.5682 18.3079 14.6364 17.0579 14.6364 15.4233V11.5771" stroke="white" stroke-width="2" stroke-miterlimit="10" stroke-linecap="round" stroke-linejoin="round"/>
<path d="M1 15.4229V19.269C1 20.9036 4.06818 22.1536 7.81818 22.1536C11.5682 22.1536 14.6364 20.9036 14.6364 19.269V15.4229" stroke="white" stroke-width="2" stroke-miterlimit="10" stroke-linecap="round" stroke-linejoin="round"/>
<path d="M1 19.269V23.1152C1 24.7498 4.06818 25.9998 7.81818 25.9998C11.5682 25.9998 14.6364 24.7498 14.6364 23.1152V19.269" stroke="white" stroke-width="2" stroke-miterlimit="10" stroke-linecap="round" stroke-linejoin="round"/>
<path d="M14.6365 19.4615C15.8865 19.9423 17.4774 20.2308 19.1819 20.2308C22.9319 20.2308 26.0001 18.9808 26.0001 17.3462V13.5" stroke="white" stroke-width="2" stroke-miterlimit="10" stroke-linecap="round" stroke-linejoin="round"/>
<path d="M14.6365 11.3845C15.8865 10.9037 17.4774 10.6152 19.1819 10.6152C22.9319 10.6152 26.0001 11.8652 26.0001 13.4998C26.0001 15.1345 22.9319 16.3845 19.1819 16.3845C17.4774 16.3845 15.8865 16.096 14.6365 15.6152" stroke="white" stroke-width="2" stroke-miterlimit="10" stroke-linecap="round" stroke-linejoin="round"/>
<path d="M14.6365 23.3077C15.8865 23.7885 17.4774 24.077 19.1819 24.077C22.9319 24.077 26.0001 22.827 26.0001 21.1923V17.3462" stroke="white" stroke-width="2" stroke-miterlimit="10" stroke-linecap="round" stroke-linejoin="round"/>
</svg>
