<svg width="40" height="41" viewBox="0 0 40 41" fill="none" xmlns="http://www.w3.org/2000/svg">
<ellipse cx="20" cy="20.5" rx="20" ry="20.5" fill="#1E1E1E"/>
<path d="M18.6762 12.3125H15.4688H13.8426H13.3125V12.7078V14.4688V16.2836V20.2816L9.00898 17.0967C9.08086 16.2836 9.49863 15.5289 10.1635 15.0393L11.1562 14.3025V12.3125C11.1562 11.1221 12.1221 10.1562 13.3125 10.1562H16.7535L18.9951 8.49863C19.4309 8.1752 19.9564 8 20.5 8C21.0436 8 21.5691 8.1752 22.0049 8.49414L24.2465 10.1562H27.6875C28.8779 10.1562 29.8438 11.1221 29.8438 12.3125V14.3025L30.8365 15.0393C31.5014 15.5289 31.9191 16.2836 31.991 17.0967L27.6875 20.2816V16.2836V14.4688V12.7078V12.3125H27.1574H25.5312H22.3238H18.6717H18.6762ZM9 28.125V18.8756L18.775 26.117C19.2736 26.4854 19.8801 26.6875 20.5 26.6875C21.1199 26.6875 21.7264 26.4898 22.225 26.117L32 18.8756V28.125C32 29.7107 30.7107 31 29.125 31H11.875C10.2893 31 9 29.7107 9 28.125ZM16.9062 15.1875H24.0938C24.4891 15.1875 24.8125 15.5109 24.8125 15.9062C24.8125 16.3016 24.4891 16.625 24.0938 16.625H16.9062C16.5109 16.625 16.1875 16.3016 16.1875 15.9062C16.1875 15.5109 16.5109 15.1875 16.9062 15.1875ZM16.9062 18.0625H24.0938C24.4891 18.0625 24.8125 18.3859 24.8125 18.7812C24.8125 19.1766 24.4891 19.5 24.0938 19.5H16.9062C16.5109 19.5 16.1875 19.1766 16.1875 18.7812C16.1875 18.3859 16.5109 18.0625 16.9062 18.0625Z" fill="white"/>
</svg>
